<svg xmlns="http://www.w3.org/2000/svg" width="697" height="680" fill="currentColor"><path fill="#5D4043" fill-rule="evenodd" d="M308.457 107.287c24.791-9.711 47.307-18.532 58.201-39.39 12.117-23.2 1.02-58.527 1.02-58.527s41.324 33.321 59.715 81.205c10.841-8.967 19.307-19 23.037-32.245C457.526 33.135 439.412.84 439.412.84s118.135 56.517 104.711 163.903c-8.955 71.64-44.359 97.939-55.196 104.405 17.959.382 44.957 5.786 73.511 28.827 0 0-30.114 15.056-51.774 29.29l29.803 67.49 1.381 3.127 1.221 2.764 57.225 129.59c18.613 42.154 27.903 85.733 28.922 128.623.281 11.81-9.502 21.145-21.315 21.145H66.389c-6.944 0-13.504-3.269-17.567-8.899-24.73-34.266-42.6-65.99-48.822-91.914 76.377 9.438 155.256-7.269 207.077-58.173-51.401 14.714-105.986-1.221-105.986-1.221s35.332-11.077 47.45-34.278c10.893-20.857 5.267-44.376-.927-70.271-7.586-31.714-16.024-66.993 3.988-105.31 36.353-69.604 82.782-45.354 82.782-45.354s-46.429-24.25-10.076-93.853c20.013-38.318 53.787-51.549 84.149-63.444Zm110.711 233.128c14.652 0 26.529-11.878 26.529-26.53 0-14.652-11.877-26.53-26.529-26.53s-26.53 11.878-26.53 26.53c0 14.652 11.878 26.53 26.53 26.53Zm270.6 68.982c15.152-30.467 2.737-67.449-27.73-82.601-25.994-12.928-100.161.274-121.38 4.429a4.495 4.495 0 0 0-3.202 6.437c9.491 19.429 43.718 86.538 69.711 99.465 30.468 15.152 67.449 2.737 82.601-27.73Z" clip-rule="evenodd"/></svg>